<svg xmlns="http://www.w3.org/2000/svg" viewBox="0 0 500 500"><g id="freepik--background-complete--inject-20"><path d="M70.78,70.81a9.05,9.05,0,0,1-.11-1.68c0-1.2-.06-2.75-.1-4.6-.06-3.88-.09-9.23-.09-15.15V48.31h.3c5.75,0,10.92,0,14.65.09l4.41.1a7.67,7.67,0,0,1,1.61.12,8.27,8.27,0,0,1-1.61.11l-4.41.1c-3.73.05-8.9.09-14.65.09l.31-.3v.76c0,5.92,0,11.27-.09,15.15,0,1.85-.07,3.4-.1,4.6A7.55,7.55,0,0,1,70.78,70.81Z" style="fill:#e0e0e0"></path><path d="M112.64,95.84a13,13,0,0,1-.22-2.84c0-1.76-.09-4.18-.09-6.86v-.65h.31c2.6,0,4.94,0,6.63.09a13.15,13.15,0,0,1,2.72.21,12.33,12.33,0,0,1-2.72.21c-1.69.06-4,.09-6.63.1l.3-.31v.35c0,2.68,0,5.1-.09,6.86A13.47,13.47,0,0,1,112.64,95.84Z" style="fill:#e0e0e0"></path><path d="M122.34,114.32a13,13,0,0,1-2.84.22c-1.76.06-4.18.09-6.86.09H112v-.31c0-2.6,0-4.94.09-6.62a13.2,13.2,0,0,1,.21-2.73,12.38,12.38,0,0,1,.21,2.73c.06,1.68.09,4,.1,6.62l-.31-.3h.35c2.68,0,5.1,0,6.86.09A13.47,13.47,0,0,1,122.34,114.32Z" style="fill:#e0e0e0"></path><path d="M150.67,104.62a13,13,0,0,1,.22,2.85c.05,1.75.09,4.18.09,6.85V115h-.31c-2.6,0-4.94,0-6.63-.1a12.33,12.33,0,0,1-2.72-.21,12.33,12.33,0,0,1,2.72-.21c1.69-.06,4-.09,6.63-.09l-.3.3v-.35c0-2.67,0-5.1.09-6.85A13.52,13.52,0,0,1,150.67,104.62Z" style="fill:#e0e0e0"></path><path d="M141,85.79a13.47,13.47,0,0,1,2.84-.21c1.76-.06,4.18-.09,6.86-.09h.65v.3c0,2.6,0,4.94-.09,6.63a12.38,12.38,0,0,1-.21,2.73,12.38,12.38,0,0,1-.21-2.73c-.06-1.69-.09-4-.1-6.63l.31.31h-.35c-2.68,0-5.1,0-6.86-.09A13,13,0,0,1,141,85.79Z" style="fill:#e0e0e0"></path><path d="M92.21,151.29a9.48,9.48,0,0,1-1.68.12l-4.59.1c-3.88.05-9.24.09-15.15.09H69.72v-.31c0-5.74,0-10.91.09-14.64,0-1.78.07-3.26.09-4.41a8.65,8.65,0,0,1,.12-1.61,8.65,8.65,0,0,1,.12,1.61c0,1.15,0,2.63.09,4.41.06,3.73.09,8.9.09,14.64L70,151h.77c5.91,0,11.27,0,15.15.09l4.59.09A9.48,9.48,0,0,1,92.21,151.29Z" style="fill:#e0e0e0"></path><path d="M191.51,129.1a9.05,9.05,0,0,1,.11,1.68c0,1.2.06,2.74.1,4.59.06,3.88.09,9.24.09,15.16v1.07h-.3c-5.75,0-10.92,0-14.65-.1l-4.41-.09a8.65,8.65,0,0,1-1.61-.12,8.65,8.65,0,0,1,1.61-.12l4.41-.09c3.73-.06,8.9-.09,14.65-.09l-.31.3v-.76c0-5.92,0-11.28.09-15.16,0-1.85.07-3.39.1-4.59A7.55,7.55,0,0,1,191.51,129.1Z" style="fill:#e0e0e0"></path><path d="M170.08,48.62a7.55,7.55,0,0,1,1.68-.12l4.59-.1c3.88,0,9.24-.09,15.15-.09h1.07v.31c0,5.74,0,10.91-.09,14.64,0,1.77-.07,3.25-.09,4.41a8.65,8.65,0,0,1-.12,1.61,8.65,8.65,0,0,1-.12-1.61c0-1.16-.05-2.64-.09-4.41-.06-3.73-.09-8.9-.1-14.64l.31.3h-.77c-5.91,0-11.27,0-15.15-.09l-4.59-.1A9.05,9.05,0,0,1,170.08,48.62Z" style="fill:#e0e0e0"></path><path d="M184.35,56.88a2.07,2.07,0,1,1-2.07-2.06A2.07,2.07,0,0,1,184.35,56.88Z" style="fill:#e0e0e0"></path><rect x="75.67" y="54.82" width="9.68" height="4.13" rx="0.49" style="fill:#e0e0e0"></rect><rect x="85.96" y="55.96" width="1.7" height="1.86" style="fill:#e0e0e0"></rect><path d="M390.45,447.27c-32.85-11.89-48.77-46.07-56.34-78.61-1.27-5.43-3.39-11-2.1-16.36s6.4-10.24,11.83-9.27c4.51.8,7.5,5,10.77,8.23a32.53,32.53,0,0,0,15.86,8.66c3.91.86,8.44.81,11.32-2,4-3.81,2.78-10.37,1.31-15.71q-4.12-14.94-8.24-29.88c-1.47-5.35-2.95-10.81-2.66-16.34s2.71-11.23,7.42-14,11.8-1.55,14.28,3.4c1,2.06,1.2,4.44,2,6.62s2.44,4.37,4.72,4.42,4-2,5.21-4c4.08-6.89,6-14.86,7.6-22.73s3.14-15.87,6.56-23.11,9.11-13.78,16.66-16.27,17,0,20.95,7,1.63,15.87-1.52,23.26A123.82,123.82,0,0,1,437.53,291c-1.37,1.65-2.85,3.44-3,5.59-.21,3.88,4.13,6.52,8,6.75,4.35.25,8.56-1.33,12.87-2s9.32,0,12,3.52c3.67,4.88.63,11.85-2.86,16.81a105.81,105.81,0,0,1-25.6,25.63c-3.55,2.5-7.35,4.88-9.78,8.5s-3.06,8.95-.13,12.2,8.19,3.15,12.11,1.27,7-5.1,10.54-7.64c6.61-4.76,16.24-6.8,22.67-1.71,4.22,3.34,6.05,9.09,5.83,14.49s-2.25,10.55-4.56,15.41c-8.08,17-20.18,32.2-35.65,42.71s-30.86,16.35-49.49,14.71" style="fill:#ebebeb"></path><path d="M396.46,471.29a243.52,243.52,0,0,1-3.12-46.47c.38-17.55,2.38-36.75,5.16-56.76q1.08-7.5,2.12-14.81c.7-4.86,1.4-9.68,2.38-14.35a248.69,248.69,0,0,1,7.14-26.52c2.68-8.33,5.53-16.13,8.25-23.4s5.4-14,8.1-20a196.43,196.43,0,0,1,14.84-27.48c2-3.1,3.63-5.45,4.76-7l1.29-1.78a3.28,3.28,0,0,1,.47-.59,5,5,0,0,1-.39.65l-1.21,1.84c-1.07,1.62-2.64,4-4.59,7.13a208,208,0,0,0-14.51,27.56c-2.65,6-5.28,12.77-8,20s-5.49,15.09-8.14,23.4A249.69,249.69,0,0,0,404,339.11c-1,4.64-1.65,9.42-2.36,14.29s-1.4,9.81-2.11,14.8c-2.78,20-4.81,39.15-5.23,56.65a247.68,247.68,0,0,0,2.89,46.32" style="fill:#e0e0e0"></path><path d="M403.27,338.78a11.61,11.61,0,0,1-1.14-2.14c-.68-1.4-1.59-3.46-2.68-6-2.19-5.13-5-12.31-8-20.24s-5.92-15.06-8.18-20.14c-1.12-2.54-2.05-4.59-2.71-6a11.16,11.16,0,0,1-.93-2.24,10.3,10.3,0,0,1,1.28,2.06c.77,1.36,1.8,3.37,3,5.88,2.44,5,5.44,12.13,8.48,20.07s5.67,14.92,7.73,20.34c.94,2.44,1.74,4.49,2.38,6.14A10.75,10.75,0,0,1,403.27,338.78Z" style="fill:#e0e0e0"></path><path d="M468.64,307.42a15.84,15.84,0,0,1-2.66,1.07c-1.72.63-4.22,1.53-7.27,2.74-6.12,2.38-14.46,5.95-23.49,10.3s-17,8.67-22.72,11.94c-2.86,1.62-5.14,3-6.72,3.93a14.74,14.74,0,0,1-2.51,1.38,15.85,15.85,0,0,1,2.3-1.72c1.52-1,3.74-2.51,6.56-4.22,5.62-3.44,13.59-7.86,22.64-12.24a250.82,250.82,0,0,1,23.68-10.05c3.1-1.13,5.64-1.93,7.41-2.44A14.91,14.91,0,0,1,468.64,307.42Z" style="fill:#e0e0e0"></path><path d="M393.85,423.33s-.27-.23-.7-.72l-1.84-2.17c-1.6-1.9-3.84-4.7-6.55-8.19-5.44-7-12.65-16.89-20.46-27.92s-14.92-21-20.21-28.07l-6.29-8.39c-.68-.91-1.24-1.67-1.69-2.29a3.68,3.68,0,0,1-.54-.84s.26.22.7.71l1.84,2.17c1.6,1.9,3.83,4.7,6.55,8.2,5.44,7,12.65,16.88,20.46,27.91s14.92,21,20.21,28.07c2.58,3.45,4.71,6.28,6.28,8.39l1.7,2.29A3.37,3.37,0,0,1,393.85,423.33Z" style="fill:#e0e0e0"></path><path d="M477.39,369.26a4.21,4.21,0,0,1-.81.62l-2.42,1.61-8.94,5.8c-7.55,4.91-17.9,11.8-29.32,19.43s-21.85,14.45-29.5,19.19c-3.83,2.38-6.94,4.27-9.12,5.53l-2.52,1.44a4,4,0,0,1-.91.45s.26-.25.81-.62l2.41-1.61,8.94-5.8c7.55-4.91,17.9-11.8,29.33-19.44s21.84-14.44,29.49-19.19c3.83-2.37,6.94-4.26,9.12-5.53l2.52-1.44A3.61,3.61,0,0,1,477.39,369.26Z" style="fill:#e0e0e0"></path></g><g id="freepik--Character--inject-20"><path d="M150.13,279.51l-2.77,90.79a29.54,29.54,0,0,0,13.23,24.62h0a29.53,29.53,0,0,0,36.8-3.37l29.68-28.62L223.87,296l-39.65,40.77-2-58Z" style="fill:#ffbe9d"></path><polygon points="268.64 245.08 229.23 263.09 187.51 324.62 222.31 370.18 248.95 358.49 268.64 245.08" style="fill:#FFA41F"></polygon><path d="M183.73,336.24c.15,0,.26,6.78.26,15.15s-.11,15.16-.26,15.16-.26-6.78-.26-15.16S183.59,336.24,183.73,336.24Z" style="fill:#eb996e"></path><polygon points="243.69 257.9 264.2 247.35 275.98 233.98 330.89 230.37 346.04 241.92 383.62 253.14 375.85 355.9 383.43 470.92 229.23 471.1 229.23 358.8 243.69 257.9" style="fill:#FFA41F"></polygon><path d="M229,321.59c.14,0,.31,29.66.36,66.24s0,66.25-.15,66.25-.31-29.65-.37-66.25S228.87,321.59,229,321.59Z" style="fill:#263238"></path><path d="M307.59,336.26a5.82,5.82,0,0,1-.78,0l-2.23-.08-8.21-.38h-.18v-.18c.13-6.48.31-15.22.51-24.85.26-9.94.49-18.94.66-25.52.11-3.22.2-5.84.27-7.73q.06-1.31.09-2.1a5.26,5.26,0,0,1,.07-.73,3.74,3.74,0,0,1,0,.73v2.11c0,1.88-.06,4.51-.1,7.73-.13,6.58-.31,15.58-.51,25.52-.25,9.63-.48,18.37-.65,24.84l-.18-.19,8.2.55,2.23.18A3.21,3.21,0,0,1,307.59,336.26Z" style="fill:#263238"></path><path d="M304.53,288.85a1.32,1.32,0,0,1,.79.13,3.32,3.32,0,0,1,1.65,1.45,3.67,3.67,0,0,1,.28,3.25,2.92,2.92,0,0,1-1.36,1.46,3.85,3.85,0,0,1-2.1.41,3.93,3.93,0,0,1-2-.74,2.93,2.93,0,0,1-1.11-1.67,3.7,3.7,0,0,1,.8-3.16,3.46,3.46,0,0,1,1.87-1.17,1.33,1.33,0,0,1,.8,0c0,.05-.28,0-.75.19a3.43,3.43,0,0,0-1.63,1.2,3.38,3.38,0,0,0-.63,2.81,3.16,3.16,0,0,0,5.68.46,3.38,3.38,0,0,0-.17-2.87,3.5,3.5,0,0,0-1.41-1.45C304.8,288.93,304.52,288.9,304.53,288.85Z" style="fill:#263238"></path><path d="M304.41,308.69a1.32,1.32,0,0,1,.79.13,3.33,3.33,0,0,1,1.65,1.45,3.68,3.68,0,0,1,.29,3.25,3,3,0,0,1-1.37,1.47,4,4,0,0,1-2.1.41,3.94,3.94,0,0,1-2-.75,3,3,0,0,1-1.11-1.66,3.66,3.66,0,0,1,.81-3.16,3.32,3.32,0,0,1,1.86-1.17,1.38,1.38,0,0,1,.8,0s-.28,0-.75.19a3.45,3.45,0,0,0-1.62,1.21,3.32,3.32,0,0,0-.63,2.8,3.15,3.15,0,0,0,5.67.47,3.36,3.36,0,0,0-.17-2.88,3.44,3.44,0,0,0-1.41-1.45C304.69,308.78,304.4,308.74,304.41,308.69Z" style="fill:#263238"></path><g style="opacity:0.30000000000000004"><path d="M253.05,341.15c13.92,19,24.82,40.15,40.32,57.83s37.3,32,60.79,30.86c7.5-.37,20.69-2.89,26-8.16l-2-20.13a255.72,255.72,0,0,1-104-55.33c-5.22-4.6-11.25-9.76-18.15-8.89"></path></g><ellipse cx="260.5" cy="161.4" rx="15.49" ry="16.58" style="fill:#FFA41F"></ellipse><path d="M261.73,144.82a18.15,18.15,0,0,0,1.71.86,14,14,0,0,1,4.07,3.12,15.58,15.58,0,0,1,3.36,6.75,17.59,17.59,0,0,1,0,9.22,17.84,17.84,0,0,1-4.63,8,14.13,14.13,0,0,1-6.5,3.77,10.29,10.29,0,0,1-5.08.09c-1.18-.3-1.77-.65-1.81-.59s.13.12.41.29a6.83,6.83,0,0,0,1.33.58,10,10,0,0,0,5.27.14,14.44,14.44,0,0,0,6.86-3.79,18.17,18.17,0,0,0,4.86-8.26,17.84,17.84,0,0,0,0-9.57,15.62,15.62,0,0,0-3.63-6.94,13.19,13.19,0,0,0-4.33-3,10.67,10.67,0,0,0-1.34-.5C261.91,144.83,261.74,144.79,261.73,144.82Z" style="fill:#263238"></path><path d="M273.94,170c.09,0,.23-.31.18-.84a2.85,2.85,0,0,0-2.93-2.5c-.54,0-.83.22-.8.31s1.26.06,2.27.93S273.74,170,273.94,170Z" style="fill:#263238"></path><path d="M273.3,164.9c.07-.19-.4-.53-1.08-.55s-1.17.29-1.11.48.54.23,1.09.25S273.23,165.09,273.3,164.9Z" style="fill:#263238"></path><path d="M273.29,151.2c.1-.18-.82-.66-1.92-.23s-1.45,1.4-1.26,1.47.69-.47,1.53-.78S273.23,151.4,273.29,151.2Z" style="fill:#263238"></path><path d="M301,272.92h0a28.33,28.33,0,0,1-26-29.65c.53-10.74,1.09-20.42,1.09-20.42s-23-3.58-23.3-26.59,3.7-75.85,3.7-75.85h0a80,80,0,0,1,80.36,10.1l3.41,2.63-8.71,113.7A28.33,28.33,0,0,1,301,272.92Z" style="fill:#ffbe9d"></path><path d="M276,222.52s14.54,1.18,30-8.52c0,0-7.09,16.56-30,14.48Z" style="fill:#eb996e"></path><path d="M293.16,182.11c-.57,0-.58,3.81-3.87,6.53s-7.37,2.31-7.4,2.84c-.05.24.91.75,2.64.8a9.59,9.59,0,0,0,6.18-2.16,8.34,8.34,0,0,0,3-5.47C293.85,183,293.43,182.09,293.16,182.11Z" style="fill:#263238"></path><path d="M294.68,139.59c.34,1,3.88.5,8,1s7.51,1.63,8.06.77c.24-.41-.34-1.32-1.69-2.25a14,14,0,0,0-12.25-1.35C295.29,138.37,294.53,139.13,294.68,139.59Z" style="fill:#263238"></path><path d="M260.29,147.51c.63.87,3.48.31,6.81.61s6.1,1.14,6.83.37c.32-.38,0-1.22-1.2-2.1a11.07,11.07,0,0,0-11-.79C260.48,146.31,260,147.09,260.29,147.51Z" style="fill:#263238"></path><path d="M337.41,157c.39-.17,15.81-4.67,15.31,11.06s-16.2,12-16.21,11.53S337.41,157,337.41,157Z" style="fill:#ffbe9d"></path><path d="M341.51,173.75c.07,0,.27.2.72.43a2.76,2.76,0,0,0,2,.11c1.68-.56,3.16-3.15,3.33-6a9,9,0,0,0-.64-3.95,3.14,3.14,0,0,0-2-2.17,1.4,1.4,0,0,0-1.65.7c-.22.43-.13.75-.22.77s-.32-.27-.18-.92a1.76,1.76,0,0,1,.65-1,2.07,2.07,0,0,1,1.53-.36A3.89,3.89,0,0,1,347.9,164a9.47,9.47,0,0,1,.81,4.42c-.21,3.17-1.92,6.08-4.22,6.67a2.93,2.93,0,0,1-2.49-.5C341.52,174.14,341.45,173.78,341.51,173.75Z" style="fill:#eb996e"></path><path d="M247.67,100.53a24.33,24.33,0,0,1,37.79-7.26,24.25,24.25,0,0,1,18.22-12.94c.48-.06,1-.11,1.45-.14,10.21-.66,19.21,6.74,21.29,16.76l1.13,5.46S347,109,351.5,112.64a17.37,17.37,0,0,1-6.2,30.28c4.94,8.9.31,21.67-9.18,25.34l-2.29-.95a32.75,32.75,0,0,1-4.77-36.13c-.28,0-.54,0-.82,0a18.38,18.38,0,0,1-23.94-5.48,20.45,20.45,0,0,1-21.93.93,8.52,8.52,0,0,0-3.3-1.51c-1.45-.15-2.82.6-4.12,1.24-3.46,1.69-7.34,2.8-11.14,2.24a10.75,10.75,0,0,1-8.36-6l-.27,0c-4.43-.8-8-4.59-9.21-8.93A18.39,18.39,0,0,1,247.67,100.53Z" style="fill:#263238"></path><path d="M349.05,156.25s9.68-46.53-17.19-53.84h-4.31s19.21,14.94,12.69,52.43" style="fill:#FFA41F"></path><ellipse cx="341.49" cy="170" rx="15.49" ry="16.58" style="fill:#FFA41F"></ellipse><path d="M340.27,153.42s-.18,0-.49.11a9,9,0,0,0-1.35.49,13.4,13.4,0,0,0-4.33,3,15.73,15.73,0,0,0-3.63,6.94,18.13,18.13,0,0,0,4.85,17.83,14.46,14.46,0,0,0,6.85,3.79,10,10,0,0,0,5.28-.14,6.69,6.69,0,0,0,1.32-.58c.29-.17.43-.26.41-.29s-.63.29-1.81.59a10.17,10.17,0,0,1-5.08-.09,14.24,14.24,0,0,1-6.5-3.76,18,18,0,0,1-4.63-8,17.68,17.68,0,0,1,0-9.22,15.58,15.58,0,0,1,3.36-6.75,14,14,0,0,1,4.07-3.12C339.64,153.71,340.29,153.49,340.27,153.42Z" style="fill:#263238"></path><path d="M328.05,178.6c.21,0,.27-1.23,1.29-2.1s2.24-.73,2.27-.93-.27-.27-.8-.31a2.91,2.91,0,0,0-1.95.68,2.88,2.88,0,0,0-1,1.82C327.83,178.29,328,178.61,328.05,178.6Z" style="fill:#263238"></path><path d="M328.7,173.5c.07.19.55.2,1.1.18s1-.05,1.08-.25-.43-.5-1.1-.48S328.63,173.31,328.7,173.5Z" style="fill:#263238"></path><path d="M328.7,159.8c.07.2.83.12,1.66.46s1.34.89,1.53.78-.17-1-1.27-1.47S328.61,159.62,328.7,159.8Z" style="fill:#263238"></path><path d="M310.76,85.12c0,.12,1.9.08,4.92.23a25.54,25.54,0,0,1,5.22.81,13.35,13.35,0,0,1,5.56,3,8.72,8.72,0,0,1,2.87,5.46,11,11,0,0,1-.8,5.09c-1.13,2.78-2.39,4.25-2.26,4.34a4.37,4.37,0,0,0,.89-1A16.29,16.29,0,0,0,329,99.92a11.08,11.08,0,0,0,1-5.36A9.23,9.23,0,0,0,327,88.63a13.62,13.62,0,0,0-5.88-3.13,23.87,23.87,0,0,0-5.37-.67c-1.54,0-2.78,0-3.63.11A4.4,4.4,0,0,0,310.76,85.12Z" style="fill:#263238"></path><path d="M330,84.27c-.1.08.61,1,1.27,2.82a13.39,13.39,0,0,1-2.47,13.72c-1.24,1.43-2.25,2.09-2.18,2.19a6.55,6.55,0,0,0,2.56-1.83,12.77,12.77,0,0,0,2.57-14.28A6.76,6.76,0,0,0,330,84.27Z" style="fill:#263238"></path><path d="M261.87,103.74a1.72,1.72,0,0,0,.1.55,9.44,9.44,0,0,0,.51,1.5,13.79,13.79,0,0,0,11.4,8.34,14.34,14.34,0,0,0,10.35-3.23l-.54-.07a17.69,17.69,0,0,0,2.34,2.68,16.75,16.75,0,0,0,11.24,4.39,16.31,16.31,0,0,0,13.84-8.1,11.36,11.36,0,0,0,.79-1.64,2.12,2.12,0,0,0,.19-.61c-.07,0-.39.78-1.22,2.1a16.83,16.83,0,0,1-4.53,4.69,15.72,15.72,0,0,1-9.07,2.89A16.27,16.27,0,0,1,286.53,113a15.56,15.56,0,0,1-2.23-2.55l-.24-.33-.3.26a13.79,13.79,0,0,1-9.83,3.14,13.19,13.19,0,0,1-7.73-3.27,14.4,14.4,0,0,1-3.48-4.53C262.13,104.46,261.94,103.73,261.87,103.74Z" style="fill:#455a64"></path><path d="M260.32,119.91c-.06.06.55.91,1.94,1.87a11.57,11.57,0,0,0,12.47.33,5.39,5.39,0,0,0,2-1.76c-.08-.09-.86.58-2.29,1.3a12.35,12.35,0,0,1-11.94-.32C261.14,120.53,260.4,119.83,260.32,119.91Z" style="fill:#455a64"></path><path d="M260.52,158c.41.43,2.9-1.41,6.45-1.4s6.13,1.78,6.52,1.34c.19-.19-.23-1-1.36-1.79a9,9,0,0,0-5.22-1.61,8.65,8.65,0,0,0-5.13,1.66C260.69,157.05,260.32,157.83,260.52,158Z" style="fill:#263238"></path><path d="M298.54,157.81a3.29,3.29,0,0,0,3.17,3.32,3.16,3.16,0,0,0,3.4-3,3.3,3.3,0,0,0-3.18-3.33A3.15,3.15,0,0,0,298.54,157.81Z" style="fill:#263238"></path><path d="M295.34,153.94c.41.43,2.91-1.42,6.45-1.41s6.14,1.79,6.52,1.35c.19-.19-.22-1-1.36-1.79a9,9,0,0,0-5.22-1.61,8.67,8.67,0,0,0-5.13,1.66C295.51,153,295.14,153.75,295.34,153.94Z" style="fill:#263238"></path><path d="M282.49,180.21c0-.2-2.19-.58-5.76-1-.9-.09-1.76-.27-1.91-.89a4.61,4.61,0,0,1,.6-2.68l2.68-6.89c3.71-9.8,6.4-17.87,6-18s-3.73,7.68-7.45,17.49c-.89,2.42-1.75,4.72-2.56,6.93-.34,1-.93,2.19-.47,3.55a2.29,2.29,0,0,0,1.49,1.32,5.69,5.69,0,0,0,1.53.21C280.24,180.4,282.47,180.41,282.49,180.21Z" style="fill:#263238"></path><polygon points="275.43 234.5 296.5 264.68 298.41 272.59 301.82 264.68 334.44 233.08 334.44 263.39 310.08 278.04 296.5 279.51 275.98 271.81 270.06 259.5 275.43 234.5" style="fill:#FFA41F"></polygon><path d="M295.65,264.7c0,.05-.55,0-1.54.21a10,10,0,0,0-3.84,1.84c-2.95,2.19-6,6.61-8.19,12.17l-.2.49-.25-.46-3.73-6.63c-3.81-6.85-7.25-13-9.78-17.61-1.21-2.21-2.19-4-2.91-5.36-.32-.6-.57-1.08-.77-1.47a2.34,2.34,0,0,1-.24-.53,2,2,0,0,1,.33.48c.22.37.51.84.85,1.42.76,1.31,1.79,3.1,3.06,5.28l9.91,17.54c1.3,2.31,2.55,4.55,3.71,6.64l-.45,0c2.25-5.63,5.39-10.06,8.47-12.25a9.65,9.65,0,0,1,4-1.75,6.83,6.83,0,0,1,1.17-.07C295.52,264.67,295.65,264.68,295.65,264.7Z" style="fill:#263238"></path><path d="M343.89,242a3.85,3.85,0,0,1-.36.6c-.28.42-.64,1-1.1,1.66-1,1.43-2.41,3.48-4.26,6a222.57,222.57,0,0,1-15.46,18.58c-4.19,4.53-8.32,8.58-11.92,11.92l-.24.24-.12-.32a74.08,74.08,0,0,0-5.35-11.32c-.76-1.31-1.4-2.32-1.83-3a8.43,8.43,0,0,1-.64-1.07,1.58,1.58,0,0,1,.21.25l.55.75c.47.66,1.14,1.65,1.93,3a67.31,67.31,0,0,1,5.55,11.29l-.36-.09c3.56-3.37,7.66-7.43,11.84-11.94,6.41-6.91,11.79-13.55,15.55-18.45,1.88-2.46,3.36-4.47,4.39-5.87l1.18-1.6A3.14,3.14,0,0,1,343.89,242Z" style="fill:#263238"></path><g style="opacity:0.30000000000000004"><path d="M297.81,284.63c1.68-2.06,1.46-5.76,4-6.67a3.38,3.38,0,0,1,3.56,1c2.33,2.5,1.66,6.18,3.78,8.81a3.85,3.85,0,0,0,1.47,1.15c2.4,1.05,4.41-.8,6-2.5q4.46-4.81,8.81-9.71a87.2,87.2,0,0,0,10.23-13.25,32,32,0,0,0,4.87-15.85c-9.12,11.64-18.88,23-29.84,32.91-1.27-4.58-4.05-9.17-6.59-13.15-.36-.56-1.6-2.46-2.23-2.7-.32-.13.32-.14,0,0l-3.41,7.91s-1.53-6.43-1.91-7.91a9.33,9.33,0,0,0-4,.64,15.24,15.24,0,0,0-2.81,1.7,18.5,18.5,0,0,0-7.31,11.41c2.11-.49,3.65-2.23,5.28-3.65s3.86-2.65,5.87-1.85,2.85,3.34,3,5.57-.11,4.59,1,6.53"></path></g><polygon points="339.96 140.89 340.25 150.77 351.37 152.18 351.73 141.85 339.96 140.89" style="fill:#455a64"></polygon><path d="M347.9,93c.14,0,.26,13.2.26,29.48s-.12,29.48-.26,29.48-.26-13.2-.26-29.48S347.75,93,347.9,93Z" style="fill:#455a64"></path><path d="M345.36,322.37s0-.18,0-.54,0-.92-.07-1.61c-.05-1.43-.12-3.5-.22-6.16-.16-5.38-.4-13.13-.7-22.69s-.61-21-1-33.65c-.12-3.16-.14-6.43-.33-9.7a5.73,5.73,0,0,0-1.93-4.25,3.56,3.56,0,0,0-2.22-.74,2.16,2.16,0,0,0-1.86,1.16,3.14,3.14,0,0,0,1.57,4,4.38,4.38,0,0,0,4.56-1.24,7.47,7.47,0,0,0,1.89-4.73,16.07,16.07,0,0,0-.4-5.31,6.15,6.15,0,0,0-1.45-2.68,4.46,4.46,0,0,0-2.62-1.34,2.7,2.7,0,0,0-2.56,1,2.61,2.61,0,0,0-.43,2.66,2.2,2.2,0,0,0,2.36,1.08,3.38,3.38,0,0,0,2.37-1.45c1.1-1.62,1.16-3.74,1.1-5.67a7.94,7.94,0,0,0-.62-2.8,3.74,3.74,0,0,0-1.83-2,3.48,3.48,0,0,0-2.63-.09,2,2,0,0,0-1.35,2,2,2,0,0,0,.49,1.14,3.68,3.68,0,0,0,3.6,1A3.62,3.62,0,0,0,343,228.2a6.67,6.67,0,0,0,.93-2.43,17.25,17.25,0,0,0,.07-5.17c-.21-1.64-.87-3.35-2.3-4.07a3.25,3.25,0,0,0-2.23-.36,2,2,0,0,0-1.54,1.39,2.51,2.51,0,0,0,.5,2.05,3.42,3.42,0,0,0,1.71,1.27,2.52,2.52,0,0,0,2-.25,3.74,3.74,0,0,0,1.44-1.46,5.43,5.43,0,0,0,.52-3.93,8.28,8.28,0,0,0-1.86-3.36,22.46,22.46,0,0,0-2.67-2.52l-.07-.05v-.08c.44-7,.79-12.46,1-16.25.13-1.86.22-3.3.29-4.3,0-.48.07-.84.09-1.11s0-.37,0-.37a3.39,3.39,0,0,1,0,.37c0,.27,0,.64,0,1.11,0,1-.12,2.45-.21,4.31-.21,3.79-.51,9.3-.88,16.26l-.06-.13a21.42,21.42,0,0,1,2.72,2.54,8.63,8.63,0,0,1,2,3.49,5.77,5.77,0,0,1-.54,4.21,4.12,4.12,0,0,1-1.59,1.62,2.91,2.91,0,0,1-2.31.28,3.8,3.8,0,0,1-1.94-1.41,2.93,2.93,0,0,1-.56-2.39,2.43,2.43,0,0,1,1.84-1.71,3.71,3.71,0,0,1,2.53.39,4.27,4.27,0,0,1,1.81,1.88,7.88,7.88,0,0,1,.74,2.52,18.27,18.27,0,0,1-.06,5.32,7.32,7.32,0,0,1-1,2.59,4.79,4.79,0,0,1-.93,1.08,3.14,3.14,0,0,1-1.29.71,4.15,4.15,0,0,1-4.1-1.13,2.54,2.54,0,0,1-.61-1.43,2.48,2.48,0,0,1,1.65-2.45,4,4,0,0,1,3,.09,4.27,4.27,0,0,1,2.08,2.23,8.5,8.5,0,0,1,.67,3,16.43,16.43,0,0,1-.12,3.05,7,7,0,0,1-1.07,2.95,3.91,3.91,0,0,1-2.72,1.66,2.72,2.72,0,0,1-2.89-1.36A3.29,3.29,0,0,1,339,232.6a3.56,3.56,0,0,1,1.68-.2,5,5,0,0,1,2.93,1.5,6.68,6.68,0,0,1,1.58,2.89,16.56,16.56,0,0,1,.42,5.51,7.94,7.94,0,0,1-2,5,4.87,4.87,0,0,1-5.12,1.35,3.65,3.65,0,0,1-1.84-4.73,2.67,2.67,0,0,1,2.3-1.44,4.1,4.1,0,0,1,2.54.84,4.82,4.82,0,0,1,1.57,2.11,9.51,9.51,0,0,1,.56,2.5c.19,3.34.2,6.57.3,9.74.33,12.66.62,24.06.87,33.65s.41,17.31.54,22.69c.05,2.66.09,4.74.12,6.17,0,.69,0,1.22,0,1.61S345.36,322.37,345.36,322.37Z" style="fill:#455a64"></path><polygon points="339.5 186.45 339.5 192.28 342.39 192.28 342.82 186.59 339.5 186.45" style="fill:#FFA41F"></polygon><path d="M195,181.05c-.1,0,.06-1.57-.08-4.07a12.8,12.8,0,0,0-.94-4.24,7.84,7.84,0,0,0-3.47-3.83,11.68,11.68,0,0,0-5.09-1.36,22.2,22.2,0,0,0-4.37.31c-2.47.43-4,.81-4,.72a4.78,4.78,0,0,1,1-.36c.68-.19,1.66-.47,2.91-.72a20,20,0,0,1,4.45-.43,11.9,11.9,0,0,1,5.33,1.39,8.23,8.23,0,0,1,3.66,4.09,12.79,12.79,0,0,1,.86,4.41,22.53,22.53,0,0,1-.11,3A4.73,4.73,0,0,1,195,181.05Z" style="fill:#263238"></path><path d="M233.61,204.33l-21.05.74L150.13,223.8l45.93,20.71,7.72,24.41,24.14-9.38,22-10,.48-24.15a20.14,20.14,0,0,0-8.77-15.58Z" style="fill:#455a64"></path><path d="M171.17,166.92l5.38-.48a2.18,2.18,0,0,1,2.35,2h0a2.18,2.18,0,0,1-2,2.35l-4.65.41Z" style="fill:#455a64"></path><path d="M132.44,177c.25-1.69,0,3.38,0,4.94a5.27,5.27,0,0,0,5.46,5.22l6.9-.26,5.35-4.85-10.39,0v-5.43Z" style="fill:#455a64"></path><path d="M177.76,220.94s5.33-4.55,7.47-4.79,15.82-.13,15.82-.13l9,6.15,21.78,40,8.52,10.89L216.68,301l-15.63-13-18.42-6,14.07.19c2.84-4.5,7.88-11.36,7.88-11.36l3.47-20,.16-7.95-4.6-12.5-7.05-7.49Z" style="fill:#ffbe9d"></path><path d="M153.12,222.14l6.54-9.15,25.16-8.66s3.92,4.74-2,8.91h-2s2.82,6.25-5.14,4.49c-.74-.16-8.09,1.14-8.09,1.14l-3.92,3.27Z" style="fill:#ffbe9d"></path><polygon points="127.74 222.16 120.14 229.44 120.94 271.12 127.75 278.64 196.59 282.81 205.55 271.17 203.78 234.59 201.41 228.6 194.8 224.09 127.74 222.16" style="fill:#455a64"></polygon><path d="M191.25,227l.42.37,1.24,1.12L197.7,233l0,0v0c0,8.62.06,23.34.11,42.08v.08l0,.06-3.72,4.4-.07.08h-.11l-63.44-2.82-1.55-.07h-.11l-.07-.08L122.87,270l-.06-.08v-.09c-.18-13.58-.36-26.47-.51-38.22v-.1l.08-.07c2.2-2.2,4.33-4.32,6.39-6.39l.07-.07h.1l45.17,1.44,12.68.45,3.33.13.85,0,.29,0h-1.17l-3.35-.07-12.7-.32-45.1-1.25.16-.06c-2.07,2.06-4.19,4.19-6.39,6.4l.07-.18c.17,11.75.36,24.64.56,38.22l-.07-.16,5.86,6.79-.18-.09,1.54.07,63.44,2.9-.18.07,3.74-4.38,0,.13c0-18.74.09-33.46.11-42.08l0,.07-4.71-4.48-1.21-1.17C191.38,227.19,191.25,227,191.25,227Z" style="fill:#263238"></path><polygon points="125.73 229.7 127.73 271.78 196.04 275.64 194.97 231.57 125.73 229.7" style="fill:#263238"></polygon><polygon points="146.9 234.1 148.1 261.53 193.11 263.39 193.11 235.03 146.9 234.1" style="fill:#455a64"></polygon><circle cx="178.22" cy="246.81" r="15.38" transform="translate(-93.85 383.41) rotate(-80.83)" style="fill:#263238"></circle><path d="M193.11,254.72a15.38,15.38,0,1,1-22.83-20.36l21.3.64a11.32,11.32,0,0,1,1.53,1.78Z" style="fill:#fafafa"></path><path d="M127.73,271.81c-.06-.13,4.45-2.53,10.07-5.37s10.24-5,10.3-4.91-4.44,2.53-10.07,5.37S127.8,271.94,127.73,271.81Z" style="fill:#455a64"></path><path d="M178.22,180.23l51,.26v27.8L222,207l-9.52-1.14V199l-.08-4.49-15.75.52.13,8.76,6.26,9.59.06,1.42L187.51,214l-5.85-10.17s-.13-4,0-4.4L178,200.87a16.28,16.28,0,0,1-6.08,1.18H153.12a8.4,8.4,0,0,1-8.38-8.38v-6c0-4,4.2-7.33,8.15-7.36Z" style="fill:#455a64"></path><rect x="144.21" y="180.23" width="36.41" height="21.82" rx="10.4" style="fill:#263238"></rect><rect x="150.13" y="188.3" width="22.49" height="4.98" rx="2.41" style="fill:#455a64"></rect><path d="M184.6,180.26a2.88,2.88,0,0,1,.92.37,8.23,8.23,0,0,1,2.19,1.61,8.42,8.42,0,0,1,2,3.51,13.73,13.73,0,0,1,.48,4.92A8.57,8.57,0,0,1,188,195.1a15.72,15.72,0,0,1-3.06,2.61,19.66,19.66,0,0,1-2.35,1.33,3.49,3.49,0,0,1-.92.36c0-.09,1.23-.69,3.06-2a17.35,17.35,0,0,0,2.91-2.62,8.3,8.3,0,0,0,2-4.19,14.2,14.2,0,0,0-.42-4.72,8.45,8.45,0,0,0-1.8-3.39A15.61,15.61,0,0,0,184.6,180.26Z" style="fill:#263238"></path><path d="M126.29,168.28l41-3.77a5.35,5.35,0,0,1,5.82,4.76h0a5.35,5.35,0,0,1-4.75,5.89L128,179.55Z" style="fill:#455a64"></path><rect x="215.61" y="156.33" width="56.02" height="37.05" style="fill:#455a64"></rect><path d="M271.62,193.37s0-.24,0-.68,0-1.12,0-2c0-1.74,0-4.25-.05-7.46,0-6.45-.07-15.68-.11-26.93l.2.2-56,.06c-.06,0,.49-.5.26-.26h0v4.89c0,1.63,0,3.25,0,4.85v9.47c0,6.2,0,12.16,0,17.82l-.23-.24,40.3.12,11.55.07,3.08,0h1.08a1,1,0,0,1-.25,0h-.77l-3,0-11.5.06-40.45.12h-.24v-.24c0-5.66,0-11.62,0-17.82V156.34h0c-.24.23.31-.32.26-.27l56,.06h.21v.21c0,11.31-.08,20.58-.11,27.06,0,3.19,0,5.69-.05,7.41,0,.83,0,1.47,0,1.93S271.62,193.37,271.62,193.37Z" style="fill:#263238"></path><path d="M151,177.08a13,13,0,0,1-2.75.53c-1.71.25-4.09.52-6.71.78l-6.71.62a15.67,15.67,0,0,1-2.8.16,13.89,13.89,0,0,1,2.76-.53c1.71-.24,4.08-.51,6.7-.77l6.72-.63A18.33,18.33,0,0,1,151,177.08Z" style="fill:#263238"></path><path d="M139.73,182c.05,0,.32.24.5.83a3.24,3.24,0,0,1-2,3.94c-.59.2-1,.15-1,.09s.34-.16.83-.43a3.4,3.4,0,0,0,1.78-3.52C139.8,182.4,139.66,182.06,139.73,182Z" style="fill:#263238"></path><path d="M171.75,173.42c-.06,0,.24-.41.53-1.09a7.08,7.08,0,0,0,.57-2.79,4.67,4.67,0,0,0-.83-2.66c-.43-.61-.74-1-.68-1s.44.22,1,.81a4.29,4.29,0,0,1,1.06,2.87,5.94,5.94,0,0,1-.76,3C172.21,173.19,171.79,173.47,171.75,173.42Z" style="fill:#263238"></path><path d="M89.1,168.25l29.53-2.73A9.62,9.62,0,0,1,129,173.47h0a9.62,9.62,0,0,1-8.32,11.19l-29.44,3.56a10,10,0,0,1-11.17-8.7h0A10,10,0,0,1,89.1,168.25Z" style="fill:#263238"></path><path d="M94.25,186.57A20.6,20.6,0,0,0,96,184.21a11.68,11.68,0,0,0,1.28-6.74,10,10,0,0,0-3.24-6,9.37,9.37,0,0,0-2.47-1.5,2,2,0,0,1,.79.14,6,6,0,0,1,1.92,1.07,10,10,0,0,1,2.15,2.45,9.27,9.27,0,0,1,1.37,3.75,11.25,11.25,0,0,1-1.49,7,7.83,7.83,0,0,1-1.38,1.69A2.44,2.44,0,0,1,94.25,186.57Z" style="fill:#455a64"></path><path d="M182.22,203.8a5.36,5.36,0,0,1,1.09-.09l3-.07,10.45-.09h.13l.08.11,3.43,5.24,2.83,4.36.25.39H203l-11.2-.09-3.26-.08a5.32,5.32,0,0,1-1.18-.09,7,7,0,0,1,1.18-.08l3.26-.08,11.2-.09-.21.39L200,209.19c-1.19-1.85-2.34-3.62-3.41-5.26l.21.11L186.33,204l-3-.07A7.44,7.44,0,0,1,182.22,203.8Z" style="fill:#263238"></path><path d="M229.15,205.32a63.6,63.6,0,0,1-8.07.26,63.83,63.83,0,0,1-8.08-.26,63.83,63.83,0,0,1,8.08-.26A63.6,63.6,0,0,1,229.15,205.32Z" style="fill:#263238"></path><path d="M229.9,258.64a3.1,3.1,0,0,1-.06-.68c0-.5-.05-1.15-.08-1.95-.07-1.7-.17-4.15-.37-7.17s-.49-6.62-.92-10.6q-.32-3-.73-6.25c-.31-2.15-.51-4.41-1.05-6.63a22,22,0,0,0-2.54-6.15,12.93,12.93,0,0,0-4.41-4.24,38.7,38.7,0,0,0-9.76-4c-2.91-.8-5.32-1.27-7-1.57l-1.92-.32a5.55,5.55,0,0,1-.67-.14,2.92,2.92,0,0,1,.68,0c.45,0,1.1.12,1.94.23a64.89,64.89,0,0,1,7.06,1.41,38.24,38.24,0,0,1,9.92,4,13.39,13.39,0,0,1,4.58,4.39,21.75,21.75,0,0,1,2.61,6.28,29.31,29.31,0,0,1,.62,3.4c.15,1.12.29,2.22.43,3.3.28,2.17.51,4.26.71,6.26.4,4,.65,7.6.8,10.63s.21,5.49.21,7.18c0,.85,0,1.51,0,2A3.69,3.69,0,0,1,229.9,258.64Z" style="fill:#263238"></path><path d="M237,255.43a4.66,4.66,0,0,1,0-.65c0-.49,0-1.11-.07-1.88-.05-1.7-.13-4.05-.21-6.92a218,218,0,0,0-1.77-22.71,19.46,19.46,0,0,0-2-6.06,16.59,16.59,0,0,0-3.51-4.78,19.4,19.4,0,0,0-4.5-3,31,31,0,0,0-4.41-1.75,51.48,51.48,0,0,0-6.71-1.6l-1.85-.32a3.16,3.16,0,0,1-.64-.13,2.67,2.67,0,0,1,.65,0c.43,0,1.07.11,1.88.22a44.19,44.19,0,0,1,6.77,1.45,30.17,30.17,0,0,1,4.49,1.71,19.53,19.53,0,0,1,4.64,3,16.84,16.84,0,0,1,3.64,4.9,19.8,19.8,0,0,1,2.11,6.22A188.64,188.64,0,0,1,237,246c.06,2.92.06,5.29.05,6.92,0,.78,0,1.4,0,1.88A2.56,2.56,0,0,1,237,255.43Z" style="fill:#263238"></path><path d="M196.56,222.88s-.12,0-.32-.09a.21.21,0,0,1-.08-.22.42.42,0,0,1,.16-.19,1.6,1.6,0,0,1,.49-.24,7.63,7.63,0,0,1,3.37-.13,11.37,11.37,0,0,1,2.26.63,5.11,5.11,0,0,1,1.18.61,12.46,12.46,0,0,1,1.08.87c1.4,1.25,2.82,2.73,4.29,4.3.72.78,1.41,1.55,2.08,2.3l0,0,0,0c1.48,3.23,2.76,6.07,3.66,8.1l1,2.41a3.37,3.37,0,0,1,.32.9,3.77,3.77,0,0,1-.48-.82L214.47,239c-1-2-2.32-4.81-3.83-8l0,.06-2.08-2.28c-1.46-1.57-2.86-3.06-4.22-4.31-.34-.3-.68-.6-1-.85a5.42,5.42,0,0,0-1.09-.58,10.3,10.3,0,0,0-2.15-.66,8.1,8.1,0,0,0-3.25,0c-.35.08-.7.26-.56.38S196.57,222.86,196.56,222.88Z" style="fill:#eb996e"></path><path d="M210.88,271c0,.15-1.5-.11-3.26.24s-3,1.1-3.12,1a5,5,0,0,1,3-1.48A5,5,0,0,1,210.88,271Z" style="fill:#eb996e"></path><path d="M210.45,247.46a30.73,30.73,0,0,1-1,3.42c-.67,2.1-1.53,5-2.27,8.29s-1.22,6.28-1.52,8.46a32.09,32.09,0,0,1-.53,3.54,3.92,3.92,0,0,1,0-1c0-.62.08-1.51.18-2.61a71.06,71.06,0,0,1,1.38-8.54,69.86,69.86,0,0,1,2.43-8.29c.39-1,.72-1.87,1-2.44A4.12,4.12,0,0,1,210.45,247.46Z" style="fill:#eb996e"></path><path d="M392.24,385.85c7.32-3.6,9.91-12.21,8.9-20.05-1-8.1-9.23-14.92-16.6-18.42s-15.59-4.72-23.7-5.59c-4.59-.5-9.34-.88-13.7.63s-8.23,5.39-8.25,10" style="fill:#FFA41F"></path><g style="opacity:0.30000000000000004"><path d="M392.24,385.85c7.32-3.6,9.91-12.21,8.9-20.05-1-8.1-9.23-14.92-16.6-18.42s-15.59-4.72-23.7-5.59c-4.59-.5-9.34-.88-13.7.63s-8.23,5.39-8.25,10"></path></g><path d="M353,299.23l-12.67,53.69L232.78,263.39,214.9,299.52l97.08,103A51.21,51.21,0,0,0,358.09,417h0c21.54-4.08,35-22.91,38.12-44.6l6.3-43.94Z" style="fill:#ffbe9d"></path><path d="M395.42,259.78l-11.8-6.64S356,255.34,353,299.23l-4.3,11.38-8.37,42.31c1.6-8.25,42.48-38.2,60.79,12.88l6.43-72.72C405.9,277.92,407.32,267.69,395.42,259.78Z" style="fill:#FFA41F"></path><path d="M349.2,294.41a2.09,2.09,0,0,1,.14.57c.06.38.18.94.24,1.67a35.48,35.48,0,0,1,.18,6.19c-.22,5.24-1.76,12.37-4.39,19.9-1.37,3.75-2.88,7.23-4.05,10.47a51.07,51.07,0,0,0-2.47,8.77,25.2,25.2,0,0,0-.34,6.11c.14,1.44.3,2.24.24,2.25a4.53,4.53,0,0,1-.15-.57,15.36,15.36,0,0,1-.29-1.66,23,23,0,0,1,.18-6.19,49.06,49.06,0,0,1,2.38-8.88c1.15-3.26,2.65-6.75,4-10.47,2.62-7.49,4.2-14.56,4.51-19.75a39.69,39.69,0,0,0,0-6.15C349.27,295.22,349.16,294.42,349.2,294.41Z" style="fill:#263238"></path><path d="M386.25,255.92a16.56,16.56,0,0,1-1.78-.22,30,30,0,0,0-4.83-.24,29.52,29.52,0,0,0-27.28,20.88,14.47,14.47,0,0,1-.54,1.7,1.78,1.78,0,0,1,.06-.46c.06-.3.13-.74.28-1.3a26.37,26.37,0,0,1,1.66-4.6,28.47,28.47,0,0,1,25.81-16.59,25.59,25.59,0,0,1,4.88.41,11.43,11.43,0,0,1,1.29.28A1.39,1.39,0,0,1,386.25,255.92Z" style="fill:#263238"></path><path d="M401.08,370.6a4.6,4.6,0,0,1-.08-.87c0-.3,0-.65-.07-1.05a10,10,0,0,0-.13-1.43,32.73,32.73,0,0,0-2.28-8.82,35.41,35.41,0,0,0-7.37-11.25,36.07,36.07,0,0,0-6.17-5,32.83,32.83,0,0,0-7.76-3.54,30.38,30.38,0,0,0-8.45-1.24,33.3,33.3,0,0,0-7.92.82,35.52,35.52,0,0,0-6.85,2.28,33.39,33.39,0,0,0-5.42,3.19,27.66,27.66,0,0,0-6.4,6.45,8.26,8.26,0,0,0-.8,1.19c-.21.35-.39.65-.55.9a4.75,4.75,0,0,1-.48.73,6.21,6.21,0,0,1,.39-.78c.15-.26.31-.57.51-.93A9.41,9.41,0,0,1,342,350a26.7,26.7,0,0,1,6.36-6.62,32.37,32.37,0,0,1,5.45-3.29,35,35,0,0,1,6.93-2.35,32.64,32.64,0,0,1,8-.87,30.56,30.56,0,0,1,8.58,1.25,33,33,0,0,1,7.89,3.61,36.34,36.34,0,0,1,6.25,5.13,35.41,35.41,0,0,1,7.36,11.45,31.44,31.44,0,0,1,2.14,8.94,11.09,11.09,0,0,1,.09,1.44c0,.41,0,.76,0,1.06A5.8,5.8,0,0,1,401.08,370.6Z" style="fill:#263238"></path><g style="opacity:0.30000000000000004"><path d="M334.44,348c1.94-14,5.68-24.48,13.8-36.1-2.84,13.59-6,25.71-9.35,39.8"></path></g><path d="M357.5,365.23c-.08.12-3.92-2.58-8.56-6a101.86,101.86,0,0,1-8.24-6.44c.08-.11,3.91,2.58,8.55,6S357.59,365.12,357.5,365.23Z" style="fill:#eb996e"></path></g><g id="freepik--Desk--inject-20"><path d="M462.51,471.17c0,.15-97.1.26-216.85.26s-216.86-.11-216.86-.26,97.07-.26,216.86-.26S462.51,471,462.51,471.17Z" style="fill:#263238"></path></g><g id="freepik--Plant--inject-20"><path d="M97.26,412c-2.81,4-8.29,2.69-10.83.24s-3.61-6-4.58-9.41C79.61,395,77.36,386.9,79,379a13.22,13.22,0,0,1,3-6.46,6.88,6.88,0,0,1,6.54-2.18c2.76.73,4.48,3.43,5.72,6a56.8,56.8,0,0,1,5.6,24.34c0,3.92-.44,8-2.66,11.26" style="fill:#FFA41F"></path><g style="opacity:0.2"><path d="M97.26,412c-2.81,4-8.29,2.69-10.83.24s-3.61-6-4.58-9.41C79.61,395,77.36,386.9,79,379a13.22,13.22,0,0,1,3-6.46,6.88,6.88,0,0,1,6.54-2.18c2.76.73,4.48,3.43,5.72,6a56.8,56.8,0,0,1,5.6,24.34c0,3.92-.44,8-2.66,11.26"></path></g><path d="M86.71,432.34c-4.61-2.38-10-2.69-15.15-1.84-2.74.45-5.61,1.27-7.48,3.34s-2.22,5.69-.08,7.47a7.2,7.2,0,0,0,4.72,1.19c4,0,8.45-.75,11.65,1.66,1.82,1.38,3,3.66,5.22,4.34A5.15,5.15,0,0,0,91.26,446a8.8,8.8,0,0,0,.65-6.5A9.94,9.94,0,0,0,86.71,432.34Z" style="fill:#FFA41F"></path><path d="M105,417.74c-3.06-3.63-3.64-8.93-2.28-13.48s4.44-8.41,8-11.57A43.14,43.14,0,0,1,125,384.26a15.13,15.13,0,0,1,6.42-1.09,6.75,6.75,0,0,1,5.4,3.26c1.5,2.87.06,6.35-1.5,9.19a109.91,109.91,0,0,1-9.38,14.29c-2.82,3.62-6,7.2-10.33,8.84s-8.74,1.44-11-1.53" style="fill:#FFA41F"></path><path d="M97.45,472.65a9.32,9.32,0,0,1-.25-1.82c-.13-1.33-.29-3-.49-5a69.47,69.47,0,0,0-1.12-7.32,56.25,56.25,0,0,0-2.66-8.64,31.62,31.62,0,0,0-4.41-7.81A16.37,16.37,0,0,0,83,437.43a15.48,15.48,0,0,0-4.7-1.46,7.81,7.81,0,0,1-1.82-.27,8.49,8.49,0,0,1,1.85,0,14.34,14.34,0,0,1,4.9,1.27,16.56,16.56,0,0,1,5.88,4.68,31,31,0,0,1,4.57,8,52.11,52.11,0,0,1,2.64,8.78,61.54,61.54,0,0,1,1,7.41c.15,2.12.21,3.83.24,5A7.55,7.55,0,0,1,97.45,472.65Z" style="fill:#263238"></path><path d="M97.11,468.82a3.64,3.64,0,0,1,0-.85c0-.64,0-1.44,0-2.43,0-2.1,0-5.15-.11-8.91-.19-7.53-.83-17.91-2.09-29.33s-2.93-21.69-4.45-29.06c-.36-1.85-.72-3.51-1.06-5s-.61-2.71-.87-3.73l-.57-2.36a4.3,4.3,0,0,1-.15-.83,3,3,0,0,1,.3.79c.18.61.41,1.38.7,2.33s.63,2.25,1,3.71.78,3.1,1.17,4.95a276.68,276.68,0,0,1,4.69,29.09c1.25,11.44,1.81,21.85,1.86,29.4.05,3.77,0,6.82-.13,8.93-.06,1-.11,1.79-.15,2.42A3.37,3.37,0,0,1,97.11,468.82Z" style="fill:#263238"></path><path d="M97.06,448.73a17.08,17.08,0,0,1,0-2.54c.09-1.63.32-4,.77-6.86a90.8,90.8,0,0,1,2.24-10,88.44,88.44,0,0,1,4.18-11.83,63.12,63.12,0,0,1,12.28-19.13,34,34,0,0,1,2.89-2.69c.45-.37.84-.74,1.24-1l1.12-.77a16.12,16.12,0,0,1,2.13-1.37c.12.17-3,2-7,6.24a66.46,66.46,0,0,0-12,19.06,93.42,93.42,0,0,0-4.2,11.72,101.13,101.13,0,0,0-2.38,9.91c-.52,2.85-.83,5.18-1,6.8A16.81,16.81,0,0,1,97.06,448.73Z" style="fill:#263238"></path></g></svg>