<svg xmlns="http://www.w3.org/2000/svg" viewBox="0 0 500 500"><g id="freepik--background-complete--inject-16"><path d="M106.4,119.26l11.51,3.17-8.51,2.08c-4.33.69-6.28,2.56-7.07,5L99.68,150.9l-3.26-21.44a7.66,7.66,0,0,0-4.49-4.34l-11-2.69,11.65-3.3a7.67,7.67,0,0,0,4.23-4.32l2.9-24.25,2.08,23.72A7.67,7.67,0,0,0,106.4,119.26Z" style="fill:#ebebeb"></path><path d="M122.87,151.7l4.13,1.14-3,.75c-1.56.25-2.25.91-2.54,1.78l-1,7.68-1.17-7.69a2.71,2.71,0,0,0-1.61-1.55l-4-1,4.18-1.18a2.77,2.77,0,0,0,1.51-1.55l1-8.69.75,8.5A2.73,2.73,0,0,0,122.87,151.7Z" style="fill:#ebebeb"></path><rect x="40.26" y="188.5" width="114.9" height="143.72" transform="translate(-179.68 280.18) rotate(-73.52)" style="fill:#fafafa"></rect><path d="M182.91,225.66s-.23,0-.67-.18l-1.94-.55-7.5-2.17-28.24-8.25L45,185.24l.47-.25c-9.69,32.8-20.8,70.4-32.56,110.18h0l-.28-.51,137.79,40.84-.43.23c9.89-33.15,18.09-60.63,23.82-79.86l6.69-22.3q1.17-3.86,1.78-5.89c.41-1.33.64-2,.64-2s-.17.67-.54,2-1,3.3-1.69,5.85l-6.5,22.28c-5.66,19.3-13.76,46.89-23.53,80.17l-.1.33-.33-.1L12.38,295.47l-.4-.12.12-.4h0C23.89,255.16,35,217.57,44.74,184.78l.11-.36.35.11,99.69,29.69L173,222.64l7.41,2.23,1.88.59Z" style="fill:#e0e0e0"></path><rect x="47.4" y="193.52" width="100.44" height="133.63" transform="translate(-179.72 280.08) rotate(-73.52)" style="fill:#ebebeb"></rect><polygon points="19.3 289.54 81.77 242.91 98.41 288.57 123.14 274.11 147.44 327.45 19.3 289.54" style="fill:#e0e0e0"></polygon><path d="M123.43,247.26a10.52,10.52,0,1,1-7.11-13.07A10.52,10.52,0,0,1,123.43,247.26Z" style="fill:#e0e0e0"></path><rect x="307.4" y="267" width="121.98" height="152.57" transform="translate(-8.13 677.63) rotate(-84.58)" style="fill:#fafafa"></rect><path d="M450.08,289.77l-.73,0-2.14-.18L439,288.8,407.85,286l-109.69-10.2.43-.35c-3.41,36.14-7.33,77.57-11.46,121.42h0l-.39-.48,151.88,14.47-.4.33c3.54-36.55,6.48-66.86,8.54-88.05,1-10.6,1.86-18.91,2.42-24.61.29-2.82.51-5,.66-6.49s.25-2.24.25-2.24,0,.72-.16,2.17-.32,3.63-.57,6.43c-.52,5.68-1.27,14-2.23,24.54-2,21.26-4.78,51.65-8.18,88.32l0,.37-.37,0-151.9-14.32-.44,0,0-.44v0c4.18-43.84,8.12-85.27,11.56-121.41l0-.39.39,0,109.91,10.62,31,3.05,8.17.82,2.09.22C449.86,289.73,450.08,289.77,450.08,289.77Z" style="fill:#e0e0e0"></path><rect x="314.98" y="272.35" width="106.62" height="141.85" transform="translate(-8.21 677.52) rotate(-84.58)" style="fill:#ebebeb"></rect><polygon points="292.64 389.65 348.22 328.35 374.86 372.52 397.68 352.42 433.86 403.04 292.64 389.65" style="fill:#e0e0e0"></polygon><path d="M392.51,324.39a11.17,11.17,0,1,1-10.06-12.17A11.17,11.17,0,0,1,392.51,324.39Z" style="fill:#e0e0e0"></path><rect x="50.65" y="319.35" width="116.36" height="93.03" transform="translate(-83.53 36.17) rotate(-13.7)" style="fill:#fafafa"></rect><path d="M154.35,306.9l-.55.15-1.58.4L146.09,309,123,314.7l-81.59,20,.22-.36c6.56,26.9,14.09,57.73,22.06,90.36h0l-.41-.24L176.31,397l-.21.34-15.83-65.59c-1.89-7.89-3.38-14.09-4.4-18.33-.5-2.11-.88-3.73-1.14-4.85s-.38-1.68-.38-1.68.15.54.42,1.61.68,2.7,1.2,4.78c1,4.22,2.57,10.38,4.52,18.24l16.16,65.69.06.27-.27.07-113,27.6-.33.08-.08-.33h0c-7.94-32.63-15.44-63.47-22-90.38l-.07-.29.29-.07,81.86-19.79,23.1-5.55,6.09-1.45,1.56-.36Z" style="fill:#e0e0e0"></path><rect x="54.67" y="325.23" width="108.19" height="81.32" transform="translate(-83.53 36.15) rotate(-13.7)" style="fill:#ebebeb"></rect><polygon points="65.83 418.19 90.58 360.14 120.81 385.32 132.23 365.14 170.94 392.58 65.83 418.19" style="fill:#e0e0e0"></polygon><path d="M121.51,346.23a8.52,8.52,0,1,1-10.3-6.26A8.52,8.52,0,0,1,121.51,346.23Z" style="fill:#e0e0e0"></path><rect x="284.03" y="104.81" width="162.61" height="130.01" transform="translate(-24.66 68.75) rotate(-10.4)" style="fill:#fafafa"></rect><path d="M433.57,91.2l-.77.16-2.24.44-8.68,1.64-32.73,6.13L273.7,121l.34-.49c7,38.06,15,81.68,23.52,127.85h0L297,248l160-29.28-.31.46c-7-38.52-12.78-70.45-16.83-92.78-2-11.17-3.58-19.93-4.66-25.94-.53-3-.93-5.27-1.21-6.84s-.39-2.38-.39-2.38.17.76.46,2.28.73,3.81,1.29,6.76c1.12,6,2.75,14.69,4.84,25.81,4.15,22.37,10.1,54.36,17.27,93l.07.38-.39.07L297.19,248.89l-.47.09-.08-.47h0c-8.45-46.17-16.45-89.8-23.42-127.86l-.07-.42.41-.08,115.8-21L422,93.22l8.61-1.53,2.21-.38Z" style="fill:#e0e0e0"></path><rect x="289.64" y="113.01" width="151.19" height="113.64" transform="translate(-24.66 68.74) rotate(-10.4)" style="fill:#ebebeb"></rect><polygon points="301.14 239.37 340.32 160.36 380.47 197.92 398.03 170.67 449.84 212.07 301.14 239.37" style="fill:#e0e0e0"></polygon><path d="M384.59,143.43a11.91,11.91,0,1,1-13.86-9.56A11.9,11.9,0,0,1,384.59,143.43Z" style="fill:#e0e0e0"></path></g><g id="freepik--speech-bubble--inject-16"><polygon points="343.29 75.42 358.66 53.51 333.68 64.47 335.07 31.05 315.56 52.94 299.44 26.81 291.66 56.5 267.24 53.66 283.44 79.35 255.98 98.49 290.17 90.6 291.27 117.73 314.1 99.42 338.07 119.55 335.17 93.11 365.32 90.69 343.29 75.42" style="fill:#fff"></polygon><path d="M343.29,75.42s.47.35,1.41,1l4.22,3,16.31,11.42.07-.28L335.15,92.9h-.21l0,.22c.85,7.92,1.82,16.85,2.86,26.45l.41-.22-24-20.16-.18-.15-.18.15-22.84,18.29.5.22c-.35-8.6-.72-17.74-1.09-27.12l0-.36-.35.06c-10.63,1.78-22.75,5.95-34.2,7.88l.23.59c8-5.1,17.46-12.78,26.07-18.24l1.4-.89.28-.18-.18-.27L267.51,53.49l-.31.49,24.42,2.84.28,0,.07-.27q4-15.31,7.77-29.7l-.56.09,16.14,26.12.2.33.25-.29,19.49-21.91-.45-.18c-.5,12.35-.94,23.52-1.34,33.42l0,.33.31-.13,25-11-.18-.22c-5,7.17-8.8,12.67-11.4,16.4L344.25,74c-.65.94-1,1.41-1,1.41s.36-.48,1-1.42l3-4.18,11.49-16.23.31-.44-.5.22-25,10.9.29.2c.43-9.89.91-21.06,1.44-33.41l0-.72-.47.54q-9.17,10.26-19.53,21.87l.45,0L299.7,26.65l-.37-.61-.18.69q-3.78,14.35-7.8,29.69l.34-.24-24.41-2.84-.68-.08.36.57q7.95,12.6,16.2,25.7l.11-.46-1.4.89c-8.61,5.47-18,13.15-26.07,18.25l-1.36.87,1.59-.27c11.44-1.93,23.57-6.1,34.19-7.89l-.37-.3c.39,9.38.77,18.52,1.12,27.12l0,.6.46-.38,22.81-18.32h-.36c8.56,7.16,16.64,13.94,24,20.11l.48.4-.07-.62c-1.07-9.6-2.06-18.52-2.94-26.44l-.19.23,30.14-2.48.43,0-.36-.24L349.06,79.35l-4.28-2.93Z" style="fill:#263238"></path><path d="M317.8,62.7l-1,15.45a2.51,2.51,0,0,1-2.35,2.35h0a2.51,2.51,0,0,1-2.65-2.23l-1.71-15.53a2,2,0,0,1,2-2.18l3.77,0A2,2,0,0,1,317.8,62.7Z" style="fill:#FFA41F"></path><path d="M310.37,89.19a3.77,3.77,0,1,0,2.39-4.77A3.78,3.78,0,0,0,310.37,89.19Z" style="fill:#FFA41F"></path></g><g id="freepik--Camera--inject-16"><path d="M232.32,140.54l-5.46-59.27c-.22-16.53-10-30.18-26.54-29.5l-1.52.15a29.56,29.56,0,0,0-26.62,30c.27,14.32.75,30.14,1.61,37.75,1.76,15.77,20.34,16.31,20.34,16.31l2,13.75s8,4.77,19.63,2.72C228.37,150.21,232.32,140.54,232.32,140.54Z" style="fill:#ffbe9d"></path><path d="M194.1,135.93a38.41,38.41,0,0,0,20.08-8.11s-3.6,11.84-19.49,12Z" style="fill:#eb996e"></path><path d="M179.6,93.64a2.26,2.26,0,0,0,2.4,2,2.15,2.15,0,0,0,2.12-2.26,2.27,2.27,0,0,0-2.4-2.06A2.17,2.17,0,0,0,179.6,93.64Z" style="fill:#263238"></path><path d="M176.34,89.27c.31.27,1.89-1.17,4.32-1.4s4.32.8,4.56.47c.11-.14-.23-.64-1.06-1.13a6.15,6.15,0,0,0-3.68-.74,5.91,5.91,0,0,0-3.4,1.48C176.39,88.6,176.19,89.15,176.34,89.27Z" style="fill:#263238"></path><path d="M201.88,91.47a2.26,2.26,0,0,0,2.4,2.06,2.16,2.16,0,0,0,2.12-2.26A2.25,2.25,0,0,0,204,89.21,2.17,2.17,0,0,0,201.88,91.47Z" style="fill:#263238"></path><path d="M200.23,87.35c.31.26,1.89-1.17,4.32-1.41s4.32.8,4.55.48c.12-.14-.21-.65-1-1.13a6.15,6.15,0,0,0-3.68-.75A5.92,5.92,0,0,0,201,86C200.28,86.67,200.08,87.23,200.23,87.35Z" style="fill:#263238"></path><path d="M193.22,106.21c0-.14-1.54-.25-4-.32-.63,0-1.23-.06-1.37-.48a3.14,3.14,0,0,1,.23-1.87q.65-2.34,1.36-4.9c1.87-7,3.16-12.67,2.88-12.75s-2,5.52-3.9,12.49q-.67,2.57-1.28,4.92a3.55,3.55,0,0,0-.08,2.46,1.52,1.52,0,0,0,1.11.8,3.91,3.91,0,0,0,1.06,0C191.7,106.49,193.22,106.35,193.22,106.21Z" style="fill:#263238"></path><path d="M200.52,107.18c-.39,0-.14,2.65-2.2,4.74s-4.9,2.08-4.89,2.45c0,.17.68.45,1.87.37a6.64,6.64,0,0,0,4.09-1.9,5.72,5.72,0,0,0,1.68-4C201.06,107.77,200.7,107.15,200.52,107.18Z" style="fill:#263238"></path><path d="M198.66,77.9c.3.64,2.69.09,5.57.14s5.26.61,5.58,0c.14-.3-.32-.88-1.32-1.43a9.33,9.33,0,0,0-4.23-1,9.14,9.14,0,0,0-4.26.94C199,77,198.52,77.6,198.66,77.9Z" style="fill:#263238"></path><path d="M176.53,82.16c.48.51,2.1-.23,4.11-.46s3.74,0,4.08-.61c.14-.3-.18-.82-1-1.27a6,6,0,0,0-6.59.86C176.5,81.32,176.32,81.91,176.53,82.16Z" style="fill:#263238"></path><path d="M173,74.5s3.17-10.3,7.71-13.09c5.49-3.36,8.61,2.72,13.95.64s10.59-5.32,16.63-1.62c6.62,4,4.06,7.59,5.14,14.55,4.37,28.24,10.36,35.76,10.5,22.23,0-1.48,4-3,4-9.3,0-8.1-.68-17.88-3-23.4-2-4.65-5.06-7.7-10.33-10.86-8.33-5-19-4.07-26.14-2.62S171.08,62.18,173,74.5Z" style="fill:#263238"></path><path d="M225.86,96.88a4.31,4.31,0,0,1,4.21-4.59c3,0,6.42,1.34,6.83,7.44.73,10.82-10.29,9.32-10.33,9S226.12,101.42,225.86,96.88Z" style="fill:#ffbe9d"></path><path d="M228.65,104.51s.2.12.53.25a1.89,1.89,0,0,0,1.41-.07c1.11-.5,1.95-2.38,1.88-4.33a6.23,6.23,0,0,0-.71-2.66,2.23,2.23,0,0,0-1.52-1.36,1,1,0,0,0-1.08.6c-.12.31,0,.52-.1.54s-.24-.16-.18-.62a1.17,1.17,0,0,1,.38-.7,1.4,1.4,0,0,1,1-.35,2.64,2.64,0,0,1,2.08,1.55,6.3,6.3,0,0,1,.86,3c.08,2.18-.9,4.3-2.43,4.86A2.05,2.05,0,0,1,229,105C228.69,104.77,228.62,104.54,228.65,104.51Z" style="fill:#eb996e"></path><path d="M223.56,76a10.21,10.21,0,0,1-4.36,2.56c-1.67.34-3.7-.44-4.15-2.08-.2-.74-.1-1.63-.66-2.16s-1.72-.31-2.61-.12A7,7,0,0,1,204.13,70c-.68,1.28-2.55,1.41-3.84.75A15.65,15.65,0,0,1,197,67.87c-1-1-2.48-1.83-3.89-1.48a10.76,10.76,0,0,1-2.29.75c-1.43,0-2.29-1.58-2.64-3s-.69-3-2-3.66-2.58,0-3.86.28-3,.18-3.47-1.06a2.58,2.58,0,0,1,.29-2,7,7,0,0,1,8-3.47,9.52,9.52,0,0,1,17.22-3.57,9.67,9.67,0,0,1,15.72,2A7,7,0,0,1,229,62c2.05.91,3.91,2.67,4.17,4.9s-1.69,4.67-3.91,4.3A3.88,3.88,0,0,1,223,75.74" style="fill:#263238"></path><path d="M186.71,57.52a.6.6,0,0,0,0,.2c0,.13.06.33.13.57a6.71,6.71,0,0,0,1,2,7.81,7.81,0,0,0,2.65,2.32,7.33,7.33,0,0,0,4.54.82l-.2-.23a3.91,3.91,0,0,0,.51,3,11.16,11.16,0,0,0,2.11,2.47,7.86,7.86,0,0,0,1.33,1.12,3.8,3.8,0,0,0,1.78.46,3.93,3.93,0,0,0,3.35-1.59l-.42-.07a8.15,8.15,0,0,0,4,5.26,5.92,5.92,0,0,0,3.66.8,10.49,10.49,0,0,0,3.42-1.11l-.3-.1a8.54,8.54,0,0,0,2.88,3.08,4.55,4.55,0,0,0,3.86.65A6,6,0,0,0,225.13,72l-.24.14a5.62,5.62,0,0,0,3.77.17,6.11,6.11,0,0,0,2.47-1.41,5,5,0,0,0,1.07-1.44,2.62,2.62,0,0,0,.22-.58A6.74,6.74,0,0,1,231,70.79a6,6,0,0,1-2.41,1.29,5.34,5.34,0,0,1-3.56-.23l-.21-.09,0,.23a5.62,5.62,0,0,1-3.91,4.74,4.13,4.13,0,0,1-3.5-.62,8.08,8.08,0,0,1-2.72-2.93l-.1-.19-.2.1a10.37,10.37,0,0,1-3.27,1.06,5.45,5.45,0,0,1-3.38-.76,7.69,7.69,0,0,1-3.77-5l-.12-.5-.3.42a3.48,3.48,0,0,1-2.95,1.41,3.33,3.33,0,0,1-1.57-.4,7.63,7.63,0,0,1-1.26-1.05A11,11,0,0,1,195.69,66a3.59,3.59,0,0,1-.5-2.67l.06-.27-.27,0a7,7,0,0,1-4.35-.72A7.82,7.82,0,0,1,188,60.17,8.58,8.58,0,0,1,186.71,57.52Z" style="fill:#455a64"></path><path d="M230.12,76.94a6.26,6.26,0,0,1-1.23,1.77,16.76,16.76,0,0,1-4,3.32A16.56,16.56,0,0,1,220.05,84a6,6,0,0,1-2.14.24,28.69,28.69,0,0,0,6.71-2.62A28.85,28.85,0,0,0,230.12,76.94Z" style="fill:#fff"></path><path d="M230.86,82.42a6.18,6.18,0,0,1-1.3,1.51,21.12,21.12,0,0,1-8.26,4.87,5.65,5.65,0,0,1-2,.4,53.53,53.53,0,0,0,6.1-2.81A56.84,56.84,0,0,0,230.86,82.42Z" style="fill:#fff"></path><path d="M195.36,144.37l-27.66,7.76a15.32,15.32,0,0,0-8.21,5.62l-20.55,28.81,6.48,7.43,153.19.07s-5.87-21.52-7.8-28.12c-2.91-10-6.86-12.79-10.46-16.43a17,17,0,0,0-5.75-3.38c-6.36-1.39-36.54-8.4-42.28-8.24,0,0-5.91,14.06-19.77,13.93S195.36,144.37,195.36,144.37Z" style="fill:#455a64"></path><path d="M259.54,170.09c.1,0,.4-1.3,1.33-3.25a26.42,26.42,0,0,1,4.88-6.82,61.58,61.58,0,0,1,6.4-5.55,24,24,0,0,0,2.73-2.23,18.73,18.73,0,0,0-3,1.9,46,46,0,0,0-6.57,5.47,23.52,23.52,0,0,0-4.84,7.06,15.75,15.75,0,0,0-.83,2.47A2.71,2.71,0,0,0,259.54,170.09Z" style="fill:#263238"></path><path d="M170.62,187.07a17.59,17.59,0,0,0,.11-3.35c0-2.07-.13-4.92-.37-8.07s-.57-6-.86-8a18.46,18.46,0,0,0-.61-3.29,18.74,18.74,0,0,0,.2,3.34c.19,2.23.43,5,.68,8s.39,5.79.55,8A20.51,20.51,0,0,0,170.62,187.07Z" style="fill:#263238"></path><g style="opacity:0.30000000000000004"><path d="M161.12,191.16a16.65,16.65,0,0,0,7.19-3.67c1.94-1.91,3-5,1.81-7.43a23.38,23.38,0,0,0,21.56,13.42l-38.19.47A32.72,32.72,0,0,1,161.12,191.16Z"></path></g><g style="opacity:0.30000000000000004"><polygon points="256.6 193.99 257.24 179.14 246.81 193.97 256.6 193.99"></polygon></g><path d="M256.6,194a75.49,75.49,0,0,1,.23-8.79,76.76,76.76,0,0,1,.74-8.77,75.5,75.5,0,0,1-.23,8.79A76.76,76.76,0,0,1,256.6,194Z" style="fill:#263238"></path><path d="M232.55,181.06h82.81l4.73-4.73h50.35a6.16,6.16,0,0,1,6.16,6.16v8.32H227l-.18-3.69A5.77,5.77,0,0,1,232.55,181.06Z" style="fill:#FFA41F"></path><path d="M116,312.73l1.11-110.27a11.72,11.72,0,0,1,11.72-11.61H382.22a11.72,11.72,0,0,1,11.72,11.63l.83,110.25,11.66,48.16V378.1h-8.26v49.29A32.63,32.63,0,0,1,365.54,460H140.29a32.63,32.63,0,0,1-32.63-32.63V376H99.4V360.89Z" style="fill:#FFA41F"></path><path d="M116,312.73s-.35,1.07-1.05,3.14l-3.16,9.24L99.51,360.93v0q0,7.11,0,15.14l-.13-.12h8.39V376c0,10.77,0,22.66,0,35.59q0,4.85,0,9.89a81.76,81.76,0,0,0,.33,10.23,30.55,30.55,0,0,0,3.09,10.06,32.94,32.94,0,0,0,6.4,8.81,32.34,32.34,0,0,0,20.51,9.11c2,.14,4,.1,6,.11h18.43l52.61,0,118.44,0h32a33.54,33.54,0,0,0,15.51-4l1.73-1.06.87-.53.82-.61,1.63-1.22,1.51-1.38.76-.69.69-.75,1.38-1.52,1.24-1.64.61-.82c.2-.28.36-.58.54-.87l1.07-1.76c.33-.6.61-1.23.91-1.85a34.34,34.34,0,0,0,1.53-3.83,32.52,32.52,0,0,0,1.46-8.14c.1-1.38.09-2.78.09-4.18V412.3q0-16.94,0-34.2v-.26h8.52l-.26.26V361c-1.18-4.89-2.46-10.17-3.74-15.46-2.72-11.2-5.41-22.32-7.92-32.69v-.06c-.27-35.66-.53-70.38-.78-103.84-.2-4.13.62-8.53-1.6-12.08a11.52,11.52,0,0,0-10-5.72H310.68L148.56,191H131.73c-1.36,0-2.73,0-4,.06a11.76,11.76,0,0,0-3.79,1.06,11.44,11.44,0,0,0-5.42,5.35,11.25,11.25,0,0,0-1.09,3.61c-.14,1.25-.11,2.52-.13,3.77,0,2.52,0,5-.08,7.42q-.08,7.31-.15,14.14c-.2,18.21-.37,33.87-.51,46.66s-.27,22.7-.35,29.42c0,3.35-.08,5.91-.1,7.63s0,2.59,0,2.59,0-.88,0-2.6,0-4.28,0-7.64c.06-6.72.14-16.63.25-29.42s.26-28.45.43-46.66q.06-6.82.13-14.13c0-2.43,0-4.9.07-7.41,0-1.25,0-2.52.12-3.81a11.9,11.9,0,0,1,6.69-9.21,12.14,12.14,0,0,1,3.9-1.11c1.37-.1,2.71,0,4.08-.06h16.83l162.12,0H382.1a12,12,0,0,1,12.09,12c0,2.08,0,4.17.05,6.26.25,33.46.52,68.18.79,103.83v-.06c2.52,10.38,5.21,21.5,7.92,32.69,1.28,5.3,2.56,10.58,3.75,15.47v17.53h-8.52l.26-.26V425c0,1.4,0,2.8-.09,4.21a33.18,33.18,0,0,1-1.48,8.27,34.31,34.31,0,0,1-1.56,3.89c-.31.62-.59,1.26-.92,1.88L393.29,445c-.18.3-.35.6-.55.89l-.62.83-1.26,1.67-1.4,1.54-.7.77-.77.69-1.53,1.4L384.8,454l-.83.62-.88.54-1.77,1.07a33.8,33.8,0,0,1-15.75,4h-32l-118.44,0-52.61,0H144.12c-2,0-4,0-6-.11a32.64,32.64,0,0,1-20.73-9.23,33.68,33.68,0,0,1-6.47-8.91,31.24,31.24,0,0,1-3.11-10.18,82.73,82.73,0,0,1-.32-10.27c0-3.36,0-6.66,0-9.89,0-12.93,0-24.82,0-35.59l.13.14H99.28V376q0-8,0-15.14v0c5.41-15.6,9.57-27.63,12.39-35.76l3.21-9.23C115.62,313.79,116,312.73,116,312.73Z" style="fill:#263238"></path><circle cx="156.74" cy="279.76" r="21.16" transform="translate(-155.21 205.45) rotate(-47.34)" style="fill:#e0e0e0"></circle><path d="M177.9,279.76a1.38,1.38,0,0,1-.05-.34c0-.26,0-.59-.07-1a11.57,11.57,0,0,0-.19-1.62,17.59,17.59,0,0,0-.45-2.17,20.12,20.12,0,0,0-2.36-5.59,21,21,0,0,0-5.35-5.94,20.74,20.74,0,0,0-8.83-3.9,21,21,0,0,0-11,.92,22.64,22.64,0,0,0-2.73,1.2,21.84,21.84,0,0,0-2.56,1.65,22.42,22.42,0,0,0-2.37,2,25.18,25.18,0,0,0-2,2.42,20.48,20.48,0,0,0-3,5.76,20.86,20.86,0,0,0,0,13.19,20.48,20.48,0,0,0,3,5.76,22.89,22.89,0,0,0,2,2.43,25.06,25.06,0,0,0,2.37,2,21.84,21.84,0,0,0,2.56,1.65,22.64,22.64,0,0,0,2.73,1.2,21,21,0,0,0,25.17-8.92,20.24,20.24,0,0,0,2.36-5.59,17.34,17.34,0,0,0,.45-2.18,11.25,11.25,0,0,0,.19-1.62c0-.41.05-.75.07-1a1.26,1.26,0,0,1,.05-.34,1.72,1.72,0,0,1,0,.34c0,.26,0,.59,0,1a9.5,9.5,0,0,1-.14,1.63,14.2,14.2,0,0,1-.41,2.21,20,20,0,0,1-2.3,5.69,21.38,21.38,0,0,1-14.35,10.12,21.49,21.49,0,0,1-11.23-.9,23.73,23.73,0,0,1-2.8-1.22A22.91,22.91,0,0,1,144,297a24.86,24.86,0,0,1-2.43-2.07,23.79,23.79,0,0,1-2.1-2.47,20.83,20.83,0,0,1-3.07-5.9,21.32,21.32,0,0,1,0-13.52,20.7,20.7,0,0,1,3.07-5.9,25,25,0,0,1,2.1-2.48,24.75,24.75,0,0,1,2.43-2.06,22.91,22.91,0,0,1,2.63-1.68,22.18,22.18,0,0,1,2.8-1.22,21.39,21.39,0,0,1,11.23-.9A21.29,21.29,0,0,1,175,268.88a20,20,0,0,1,2.3,5.69,14.31,14.31,0,0,1,.41,2.2,9.6,9.6,0,0,1,.14,1.64c0,.42,0,.75,0,1A1.8,1.8,0,0,1,177.9,279.76Z" style="fill:#263238"></path><g style="opacity:0.30000000000000004"><polygon points="99.4 360.89 406.43 360.89 394.77 312.74 116.01 312.74 99.4 360.89"></polygon></g><path d="M372.54,248.94H337.25a5,5,0,0,1-5-5V208.61a5,5,0,0,1,5-5h35.29a5,5,0,0,1,5,5V243.9A5,5,0,0,1,372.54,248.94Zm-35.29-44.37a4,4,0,0,0-4,4V243.9a4,4,0,0,0,4,4h35.29a4,4,0,0,0,4-4V208.61a4,4,0,0,0-4-4Z" style="fill:#263238"></path><circle cx="354.89" cy="226.25" r="20.15" transform="translate(53.75 520.28) rotate(-76.83)" style="fill:#263238"></circle><rect x="133.05" y="213.58" width="63.34" height="25.52" rx="6.81" style="fill:#fafafa"></rect><path d="M189.58,239.09a11.66,11.66,0,0,0,1.65-.26,6.78,6.78,0,0,0,3.83-2.69,6.64,6.64,0,0,0,1.17-3.19c.06-1.26,0-2.66,0-4.15s0-3.09,0-4.78c0-.84,0-1.71,0-2.61a10.09,10.09,0,0,0-.23-2.68,6.6,6.6,0,0,0-3.53-4.28c-1.79-1-4-.59-6.19-.66l-14.1,0-32.31,0a6.59,6.59,0,0,0-6.21,4.46,12.51,12.51,0,0,0-.35,4v8.1a12.42,12.42,0,0,0,.3,3.84,6.59,6.59,0,0,0,5.32,4.51,12,12,0,0,0,1.81.07h5.41l6.84,0,12.29,0,17.79.08,4.83,0,1.26,0a2.06,2.06,0,0,1,.43,0l-.43,0-1.26,0-4.83.05-17.79.09-12.29,0H140.73a12,12,0,0,1-1.88-.08,7.06,7.06,0,0,1-5.72-4.83,7.54,7.54,0,0,1-.33-2c0-.66,0-1.32,0-2V220.26a7.39,7.39,0,0,1,.37-2.13,7.09,7.09,0,0,1,6.7-4.81l32.31,0,14.1,0h3.25a6.91,6.91,0,0,1,3.12.72,7,7,0,0,1,3.71,4.55,10.57,10.57,0,0,1,.22,2.77c0,.9,0,1.77,0,2.61,0,1.69,0,3.29,0,4.78s0,2.87-.06,4.17a6.88,6.88,0,0,1-1.25,3.28,6.8,6.8,0,0,1-4,2.68A5.35,5.35,0,0,1,189.58,239.09Z" style="fill:#263238"></path><circle cx="259.65" cy="255.53" r="54.94" style="fill:#263238"></circle><path d="M259.65,311a55.44,55.44,0,1,1,55.44-55.43A55.49,55.49,0,0,1,259.65,311Zm0-109.87a54.44,54.44,0,1,0,54.44,54.44A54.5,54.5,0,0,0,259.65,201.09Z" style="fill:#455a64"></path><path d="M259.65,305.46a50.95,50.95,0,1,1,51-50.94A51,51,0,0,1,259.65,305.46Zm0-100.89a49.95,49.95,0,1,0,50,50A50,50,0,0,0,259.65,204.57Z" style="fill:#455a64"></path><circle cx="259.65" cy="255.09" r="40.88" style="fill:#455a64"></circle><circle cx="156.74" cy="279.76" r="15.79" transform="translate(-155.41 206.29) rotate(-47.49)" style="fill:#FFA41F"></circle><path d="M172.53,279.76a28.05,28.05,0,0,0-.6-3.83,15,15,0,0,0-1.76-4.16,15.8,15.8,0,0,0-4-4.42,15.54,15.54,0,0,0-6.57-2.89,15.73,15.73,0,0,0-8.17.69,14.71,14.71,0,0,0-3.93,2.12,19.12,19.12,0,0,0-1.76,1.5,17.75,17.75,0,0,0-1.52,1.81,15.46,15.46,0,0,0,0,18.36,16.43,16.43,0,0,0,1.52,1.8,16.61,16.61,0,0,0,1.76,1.5,14.43,14.43,0,0,0,3.93,2.12,15.65,15.65,0,0,0,18.73-6.61,15.08,15.08,0,0,0,1.76-4.16,28.05,28.05,0,0,0,.6-3.83s0,.09,0,.25,0,.45,0,.76a7.35,7.35,0,0,1-.1,1.22,12.44,12.44,0,0,1-.3,1.65,15.18,15.18,0,0,1-1.71,4.26,16,16,0,0,1-10.73,7.58,15.9,15.9,0,0,1-8.41-.67,15.1,15.1,0,0,1-4.07-2.17,17.46,17.46,0,0,1-1.82-1.54,18.9,18.9,0,0,1-1.58-1.86,16,16,0,0,1,0-19,17.42,17.42,0,0,1,1.57-1.85,18.89,18.89,0,0,1,1.82-1.55,15.1,15.1,0,0,1,4.07-2.17,16,16,0,0,1,8.41-.66,15.92,15.92,0,0,1,10.73,7.58,15.07,15.07,0,0,1,1.71,4.26,12.44,12.44,0,0,1,.3,1.65,7.35,7.35,0,0,1,.1,1.22c0,.3,0,.55,0,.75S172.53,279.76,172.53,279.76Z" style="fill:#263238"></path><path d="M163.47,268.33a22.12,22.12,0,0,0-2.74-1.11,13.43,13.43,0,0,0-7.91.06,13.14,13.14,0,0,0-8.27,7.92,12.86,12.86,0,0,0-.76,3.32,13.28,13.28,0,0,0,.16,3.55,13,13,0,0,0,9.69,10.31,13.19,13.19,0,0,0,6.9-.17,13.36,13.36,0,0,0,5.38-3.2,13.17,13.17,0,0,0,3-4.57,13.42,13.42,0,0,0,.56-7.89,15.59,15.59,0,0,0-.66-2.09,5.22,5.22,0,0,1-.28-.72,1.57,1.57,0,0,1,.11.17c.06.11.15.28.26.51a11.58,11.58,0,0,1,.77,2.08,13.38,13.38,0,0,1-.42,8.07,13.57,13.57,0,0,1-3.05,4.75,13.85,13.85,0,0,1-5.55,3.35,13.54,13.54,0,0,1-7.16.2,13.32,13.32,0,0,1-6.63-3.86,13.52,13.52,0,0,1-3.45-6.85,14.35,14.35,0,0,1-.15-3.69,13.48,13.48,0,0,1,4.5-8.77,13.2,13.2,0,0,1,4.92-2.77,13.34,13.34,0,0,1,8.08.09,11.51,11.51,0,0,1,2,.9l.5.29Z" style="fill:#263238"></path><path d="M394.77,312.73c0,.15-62.41.27-139.37.27S116,312.88,116,312.73s62.39-.26,139.39-.26S394.77,312.59,394.77,312.73Z" style="fill:#263238"></path><path d="M403.38,378.16l-.77,0-2.25,0-8.65,0-31.81,0c-26.86-.1-64-.44-104.94-.91s-78.11-.87-105-1.05l-31.8-.2-8.65-.06-2.25,0-.77,0,.77,0,2.25,0,8.65,0,31.81,0c26.86.09,64,.43,105,.9s78.08.87,104.94,1.06l31.81.2,8.65.06,2.25,0Z" style="fill:#263238"></path><rect x="133.14" y="421.87" width="239.55" height="12.96" style="fill:#263238"></rect><polygon points="138.45 428.35 120.92 476.05 387.29 476.05 367.06 428.35 138.45 428.35" style="fill:#fff"></polygon><path d="M138.45,428.35s.37,0,1.11,0l3.3,0,12.8,0,47.77-.07,163.63-.11h.17l.06.16c6.51,15.33,13.29,31.32,20.24,47.7l.15.36H368.92l-248-.11h-.21l.07-.2,13-35.16,3.46-9.31c.39-1,.69-1.84.89-2.39s.31-.79.31-.79-.09.28-.28.83l-.87,2.41L133.9,441c-3,8.17-7.34,20.09-12.84,35.15l-.13-.19,248-.12h18.37l-.24.36c-6.95-16.38-13.72-32.37-20.22-47.7l.23.15-163.49-.11-47.82-.07-12.84,0h-3.32Z" style="fill:#263238"></path><g style="opacity:0.30000000000000004"><path d="M285.85,274c-.5-5.14-5-7-9.23-7.54-8.91-1.25-19,1.3-26.32-3.9a14.93,14.93,0,0,1-5.72-15.29c1-4.29,4-9,1.09-12.62a6.24,6.24,0,0,0-4.59-2.22,10.83,10.83,0,0,0-4.84,1,15.26,15.26,0,0,0-7.52,7.2A33.38,33.38,0,0,0,226.83,265a35.05,35.05,0,0,0,20.45,22.42,36.17,36.17,0,0,0,30.35-2c3.47-1.91,6.74-4.51,7.91-8.49A7.89,7.89,0,0,0,285.85,274Z" style="fill:#fff"></path></g><g style="opacity:0.30000000000000004"><path d="M263.37,226.92a4.19,4.19,0,1,1-4.18-4.18A4.18,4.18,0,0,1,263.37,226.92Z" style="fill:#fff"></path></g><path d="M245.21,291.22a3.31,3.31,0,0,1-.7-.29c-.44-.22-1.12-.49-1.93-1a38.1,38.1,0,0,1-6.56-4.52,40.6,40.6,0,0,1-7.77-8.89,38.71,38.71,0,0,1-5.79-27.78A40.69,40.69,0,0,1,226,237.53a38,38,0,0,1,4.2-6.76c.56-.75,1.08-1.27,1.4-1.65a5.08,5.08,0,0,1,.52-.55,4.5,4.5,0,0,1-.44.62c-.29.4-.78.93-1.31,1.71a40.12,40.12,0,0,0-4,6.79,40.9,40.9,0,0,0-3.43,11.17,38.71,38.71,0,0,0,5.72,27.44,41.29,41.29,0,0,0,7.6,8.87,40.77,40.77,0,0,0,6.42,4.62c.79.5,1.46.79,1.88,1A3.89,3.89,0,0,1,245.21,291.22Z" style="fill:#fff"></path><path d="M262.17,293.88a16.74,16.74,0,0,1-4.22,0,17.68,17.68,0,0,1-4.2-.49,16.8,16.8,0,0,1,4.23,0A17.64,17.64,0,0,1,262.17,293.88Z" style="fill:#fff"></path><path d="M297.76,260.64c-.11,0,.35-2,.5-5.17,0-.81.05-1.68,0-2.62s-.12-1.95-.22-3a35.73,35.73,0,0,0-4.2-13c-.54-.91-1-1.8-1.57-2.56s-1-1.49-1.54-2.13c-2-2.51-3.5-3.82-3.43-3.9a6.37,6.37,0,0,1,1.08.89,13.65,13.65,0,0,1,1.18,1.15c.44.48,1,1,1.46,1.63a26.33,26.33,0,0,1,1.6,2.11c.57.77,1.08,1.66,1.64,2.57a34.33,34.33,0,0,1,4.25,13.21,29.92,29.92,0,0,1,.18,3,22.58,22.58,0,0,1-.07,2.65,20.41,20.41,0,0,1-.23,2.17,14.06,14.06,0,0,1-.28,1.62A8.41,8.41,0,0,1,297.76,260.64Z" style="fill:#fff"></path><g style="opacity:0.30000000000000004"><polygon points="107.66 376.04 107.66 389.7 398.17 389.7 398.17 378.1 107.66 376.04"></polygon></g><polygon points="146.26 428.35 132.58 470.12 375.63 470.12 359.79 428.35 146.26 428.35" style="fill:#455a64"></polygon><path d="M368.13,428.35c0,.14-51.68.26-115.4.26s-115.41-.12-115.41-.26,51.66-.26,115.41-.26S368.13,428.2,368.13,428.35Z" style="fill:#263238"></path><path d="M365.67,220.47l17.72,4.89-13.09,3.2c-6.69,1.07-9.68,3.94-10.89,7.67l-4.09,33-5-33a11.76,11.76,0,0,0-6.91-6.68l-17-4.15,17.94-5.08a11.77,11.77,0,0,0,6.51-6.66l4.47-37.34,3.21,36.53A11.75,11.75,0,0,0,365.67,220.47Z" style="fill:#fff"></path><path d="M374.8,265.81l4.13,1.14-3.05.75c-1.56.25-2.25.92-2.54,1.78l-.95,7.68-1.17-7.69a2.71,2.71,0,0,0-1.61-1.55l-3.95-1,4.18-1.18a2.77,2.77,0,0,0,1.51-1.55l1-8.69.75,8.5A2.73,2.73,0,0,0,374.8,265.81Z" style="fill:#fff"></path><path d="M313.59,181.18s-3.58-4.87-5.34-5.8-4.2-.89-5.26.07l-1.07,1s-5.56-2.49-8.24-.57c0,0-5.29-2.5-7.82.36,0,0-4.08-2.65-5.8-.34s-1.55,6.23-.71,8.24,2.39,8.88,3.61,9c0,0,3.25.34,3.69-1.41s.61-2.61.61-2.61,1.25,6.22,2.74,6.53,4.35.14,4.45-2.59c0,0,1.39,2.06,2.75,1.46s3-1.59,2.88-3.28-.17-3.37-.17-3.37.74,2.46,2,1.92,2.46-.42,3.15-2.5,2.4-6.06,2.4-6.06Z" style="fill:#ffbe9d"></path><path d="M300,187.68c.08,0-.25-.67-.53-1.76a9.91,9.91,0,0,1-.18-4.3,10.06,10.06,0,0,1,1.71-4c.66-.91,1.18-1.39,1.13-1.45s-.67.33-1.43,1.21a8.87,8.87,0,0,0-1.6,8.62A3.93,3.93,0,0,0,300,187.68Z" style="fill:#eb996e"></path><path d="M293.34,175.86a8.45,8.45,0,0,0-.71,2.45,24.56,24.56,0,0,0-.38,6.15,24,24,0,0,0,1.2,6,8.24,8.24,0,0,0,1,2.33,44,44,0,0,1-1.69-8.41A43.38,43.38,0,0,1,293.34,175.86Z" style="fill:#eb996e"></path><path d="M285.73,176.27a20.23,20.23,0,0,0-.08,6.58,20,20,0,0,0,1.57,6.39c.16-.05-.63-2.88-1-6.45S285.9,176.28,285.73,176.27Z" style="fill:#eb996e"></path><path d="M263.85,177.67a2.1,2.1,0,0,1,1.4-1.14,4.53,4.53,0,0,1,4,1.08,15.4,15.4,0,0,1,3,3.63l-7.88-.05C264.43,180,263.41,178.79,263.85,177.67Z" style="fill:#ffbe9d"></path><path d="M106.92,248.71a124.82,124.82,0,0,0,13.13,1.5l10.32,7,6.54,8.6c-.92,1.88-5.23,1.08-5.23,1.08l-6.17-5.47-4.66-1,2,3.41,9.5,6.52,2.28,1.93s6.08,3.44,8.23,5c2.35,1.69,3.22,3.1,2.51,4.06-.86,1.14-3.09,1-4.39.4l-11.57-4.51s-5,2.38-7.58,2.19-7-1-7-1l-3,1.78a1.87,1.87,0,0,1-1.07.57,6.36,6.36,0,0,1-5.6-1.41l-7.09-6c-1.56-1.31-4.32-5.23-6.74-8.89a17.45,17.45,0,0,1-2-15.28h0A14.43,14.43,0,0,1,98,240.56l18.74-25.42L116.64,250" style="fill:#ffbe9d"></path><path d="M118.41,272.68a17.38,17.38,0,0,0,5.22,2.95,17.42,17.42,0,0,0,5.8,1.54c0-.16-2.55-.81-5.59-2.06S118.5,272.54,118.41,272.68Z" style="fill:#eb996e"></path><path d="M111.53,277c-.09.16,1.28.85,3,1.3a8.87,8.87,0,0,0,3.26.53,10.94,10.94,0,0,0-3.12-1.07A19.86,19.86,0,0,0,111.53,277Z" style="fill:#eb996e"></path><path d="M137.15,273.62a29.42,29.42,0,0,0-2.82-1.95c-1.75-1.19-4.14-2.86-6.72-4.8-1.29-1-2.51-1.9-3.6-2.77a11.53,11.53,0,0,1-2.57-2.57,5.55,5.55,0,0,1-.92-3.16,1.67,1.67,0,0,0-.16.92,5,5,0,0,0,.75,2.45,10.91,10.91,0,0,0,2.57,2.76c1.09.89,2.3,1.85,3.6,2.82,2.59,1.94,5,3.58,6.84,4.68A15.39,15.39,0,0,0,137.15,273.62Z" style="fill:#eb996e"></path><path d="M121.67,260.38c0,.09.84.23,2.11.73a12.1,12.1,0,0,1,4.35,3,15.42,15.42,0,0,0,2.09,2.17,4.5,4.5,0,0,0,2.37.9,4.88,4.88,0,0,0,2.26-.19c0-.1-.87,0-2.21-.21a4.31,4.31,0,0,1-2.1-.9,18.5,18.5,0,0,1-2-2.15,11,11,0,0,0-4.63-3A4.87,4.87,0,0,0,121.67,260.38Z" style="fill:#eb996e"></path><path d="M119,250.16c0-.17-4.66-.44-10.25-1.38s-10-2.11-10.06-1.89a16.8,16.8,0,0,0,2.74.89c1.76.48,4.28,1.07,7.13,1.54A47.73,47.73,0,0,0,119,250.16Z" style="fill:#eb996e"></path></g></svg>